<svg width="17" height="18" viewBox="0 0 17 18" fill="none" xmlns="http://www.w3.org/2000/svg">
<path fill-rule="evenodd" clip-rule="evenodd" d="M7.33841 0.285156C8.03047 -0.0950522 8.86769 -0.0950522 9.55975 0.285156L15.7045 3.66479C15.9227 3.78461 16.117 3.93746 16.2821 4.11489C16.6723 4.53504 16.8982 5.09268 16.8982 5.68412V12.3159C16.8982 13.1569 16.4404 13.9304 15.7045 14.3352L9.55975 17.7148C8.86769 18.0951 8.03047 18.0951 7.33841 17.7148L1.19362 14.3352C0.457787 13.9304 0 13.1569 0 12.3159V5.68412C0 5.09268 0.225821 4.53504 0.616015 4.11489C0.781156 3.93746 0.975485 3.78461 1.19362 3.66479L7.33841 0.285156ZM8.81931 1.63086C8.58888 1.50413 8.30929 1.50413 8.07886 1.63086L2.64303 4.6203L8.44908 8.1044L14.2551 4.62107L8.81931 1.63086ZM15.362 5.74787L9.21718 9.43474V16.1502L14.9641 12.9895C15.2099 12.8543 15.362 12.5962 15.362 12.3159V5.74787ZM7.68098 16.1502V9.43474L1.5362 5.74787V12.3159C1.5362 12.5962 1.68828 12.8543 1.93407 12.9895L7.68098 16.1502Z" fill="#C1C1C1"/>
</svg>
