<svg width="21" height="21" viewBox="0 0 21 21" fill="none" xmlns="http://www.w3.org/2000/svg">
<circle cx="10.5" cy="10.5" r="10" fill="#FFC400" stroke="#FFC400"/>
<path fill-rule="evenodd" clip-rule="evenodd" d="M10.5 21.0001C16.299 21.0001 21 16.2991 21 10.5001C21 4.70113 16.299 0.00012207 10.5 0.00012207C10.4176 0.00012207 10.3355 0.00107084 10.2535 0.00295806C15.6592 0.124023 20 4.10584 20 9.00012C20 13.9707 15.5228 18.0001 10 18.0001C4.7394 18.0001 0.427547 14.3443 0.0299173 9.7015C0.0100919 9.96511 0 10.2314 0 10.5001C0 16.2991 4.70101 21.0001 10.5 21.0001Z" fill="black" fill-opacity="0.06"/>
<circle cx="14.5" cy="5.5" r="2.5" fill="black" fill-opacity="0.06"/>
<path d="M11.4004 12.3818C11.4004 12.0081 11.2956 11.7119 11.0859 11.4932C10.8809 11.2699 10.5299 11.0648 10.0332 10.8779C9.53646 10.6911 9.10807 10.5065 8.74805 10.3242C8.38802 10.1374 8.07812 9.92546 7.81836 9.68848C7.56315 9.44694 7.36263 9.16439 7.2168 8.84082C7.07552 8.51725 7.00488 8.13216 7.00488 7.68555C7.00488 6.91536 7.25098 6.28418 7.74316 5.79199C8.23535 5.2998 8.88932 5.0127 9.70508 4.93066V3.46777H10.7988V4.95117C11.6055 5.0651 12.2367 5.40234 12.6924 5.96289C13.1481 6.51888 13.376 7.24121 13.376 8.12988H11.4004C11.4004 7.58301 11.2865 7.17513 11.0586 6.90625C10.8353 6.63281 10.5345 6.49609 10.1562 6.49609C9.78255 6.49609 9.49316 6.60319 9.28809 6.81738C9.08301 7.02702 8.98047 7.31868 8.98047 7.69238C8.98047 8.03874 9.08073 8.31673 9.28125 8.52637C9.48177 8.736 9.85319 8.9502 10.3955 9.16895C10.9424 9.3877 11.3913 9.59505 11.7422 9.79102C12.0931 9.98242 12.3893 10.2012 12.6309 10.4473C12.8724 10.6888 13.057 10.9668 13.1846 11.2812C13.3122 11.5911 13.376 11.9535 13.376 12.3682C13.376 13.1429 13.1344 13.7718 12.6514 14.2549C12.1683 14.738 11.5029 15.0228 10.6553 15.1094V16.4697H9.56836V15.1162C8.63411 15.016 7.90951 14.6855 7.39453 14.125C6.88411 13.5599 6.62891 12.8102 6.62891 11.876H8.60449C8.60449 12.4183 8.7321 12.8353 8.9873 13.127C9.24707 13.4141 9.61849 13.5576 10.1016 13.5576C10.5026 13.5576 10.8193 13.4528 11.0518 13.2432C11.2842 13.029 11.4004 12.7419 11.4004 12.3818Z" fill="#FCD554"/>
</svg>
