<svg width="18" height="10" viewBox="0 0 18 10" fill="none" xmlns="http://www.w3.org/2000/svg">
<path fill-rule="evenodd" clip-rule="evenodd" d="M3.07941 1.11891C3.34529 0.853714 3.77505 0.853714 4.04092 1.11891L6.0809 3.15889C6.34678 3.42409 6.34678 3.85928 6.0809 4.12448C5.81503 4.38968 5.38527 4.38968 5.11939 4.12448L4.24016 3.24049V8.40164C4.24016 8.77563 3.93552 9.08163 3.56017 9.08163C3.18481 9.08163 2.88018 8.77563 2.88018 8.40164V3.24049L2.00094 4.12448C1.73507 4.38968 1.30531 4.38968 1.03943 4.12448C0.773558 3.85928 0.773558 3.42409 1.03943 3.15889L3.07941 1.11891ZM16.4801 2.2817H8.32014C7.94478 2.2817 7.64014 1.97571 7.64014 1.60171C7.64014 1.22771 7.94478 0.921717 8.32014 0.921717H16.4801C16.8554 0.921717 17.16 1.22771 17.16 1.60171C17.16 1.97571 16.8554 2.2817 16.4801 2.2817ZM7.64014 5.00167C7.64014 4.62767 7.94478 4.32168 8.32014 4.32168H13.7601C14.1354 4.32168 14.4401 4.62767 14.4401 5.00167C14.4401 5.37566 14.1354 5.68166 13.7601 5.68166H8.32014C7.94478 5.68166 7.64014 5.37566 7.64014 5.00167ZM7.64014 8.40164C7.64014 8.02764 7.94478 7.72164 8.32014 7.72164H13.7601C14.1354 7.72164 14.4401 8.02764 14.4401 8.40164C14.4401 8.77563 14.1354 9.08163 13.7601 9.08163H8.32014C7.94478 9.08163 7.64014 8.77563 7.64014 8.40164Z" fill="#0076BC"/>
</svg>
