<svg width="16" height="17" viewBox="0 0 16 17" fill="none" xmlns="http://www.w3.org/2000/svg">
<path fill-rule="evenodd" clip-rule="evenodd" d="M7.65659 0.740995C7.65659 0.331966 7.96842 0 8.35264 0C12.1969 0 15.3132 3.31743 15.3132 7.40995C15.3132 7.81898 15.0013 8.15094 14.6171 8.15094H13.887C13.9092 8.39473 13.9211 8.64222 13.9211 8.89194C13.9211 12.9845 10.8048 16.3019 6.96053 16.3019C3.11623 16.3019 0 12.9845 0 8.89194C0 4.79942 3.11623 1.48199 6.96053 1.48199C7.1951 1.48199 7.42758 1.49459 7.65659 1.5183V0.740995ZM7.65662 3.00991C7.42901 2.97953 7.19653 2.96397 6.96056 2.96397C3.8854 2.96397 1.39214 5.61822 1.39214 8.89193C1.39214 12.1656 3.8854 14.8199 6.96056 14.8199C10.0357 14.8199 12.529 12.1656 12.529 8.89193C12.529 8.64073 12.5144 8.39324 12.4858 8.15094H8.35267C7.96845 8.15094 7.65662 7.81897 7.65662 7.40994V3.00991ZM9.04864 1.5279V6.66893H13.8779C13.5639 3.98727 11.5677 1.86209 9.04864 1.5279Z" fill="#0076BC"/>
</svg>
