<svg width="18" height="18" viewBox="0 0 18 18" fill="none" xmlns="http://www.w3.org/2000/svg">
<path fill-rule="evenodd" clip-rule="evenodd" d="M8.25 1.53675C4.46025 1.91325 1.5 5.1105 1.5 9C1.5 10.8015 2.1345 12.453 3.19275 13.7467L8.25 8.6895V1.53675ZM9.75 1.53675V8.25H16.4632C16.1108 4.70625 13.2937 1.88925 9.75 1.53675ZM16.4632 9.75H9.3105L4.25325 14.8073C5.547 15.8655 7.1985 16.5 9 16.5C12.8895 16.5 16.0868 13.5398 16.4632 9.75ZM0 9C0 4.02975 4.02975 0 9 0C13.9703 0 18 4.02975 18 9C18 13.9703 13.9703 18 9 18C6.51525 18 4.26375 16.992 2.63625 15.3638C1.008 13.7362 0 11.4847 0 9Z" fill="#C4C4C4"/>
</svg>
