<svg width="18" height="19" viewBox="0 0 18 19" fill="none" xmlns="http://www.w3.org/2000/svg">
<path fill-rule="evenodd" clip-rule="evenodd" d="M5.9456 5.96834C6.24686 5.66708 6.24686 5.17864 5.9456 4.87738C5.64434 4.57612 5.1559 4.57612 4.85464 4.87738L0.740351 8.99166C0.439089 9.29292 0.439089 9.78137 0.740351 10.0826L4.85464 14.1969C5.1559 14.4982 5.64434 14.4982 5.9456 14.1969C6.24686 13.8957 6.24686 13.4072 5.9456 13.1059L3.14823 10.3086H10.8515C11.1072 10.3086 11.3144 9.96319 11.3144 9.53715C11.3144 9.1111 11.1072 8.76572 10.8515 8.76572H3.14823L5.9456 5.96834ZM14.7887 2.02858H5.82869C5.44998 2.02858 5.14298 1.6832 5.14298 1.25715C5.14298 0.831099 5.44998 0.485718 5.82869 0.485718H14.7887C16.2645 0.485718 17.4858 1.73484 17.4858 3.31429V15.6571C17.4858 17.2366 16.2645 18.4857 14.7887 18.4857H5.82869C5.44998 18.4857 5.14298 18.1403 5.14298 17.7143C5.14298 17.2882 5.44998 16.9429 5.82869 16.9429H14.7887C15.5347 16.9429 16.1144 16.35 16.1144 15.6571V3.31429C16.1144 2.62148 15.5347 2.02858 14.7887 2.02858Z" fill="#C1C1C1"/>
</svg>
